<?xml version="1.0" encoding="UTF-8"?>
<svg width="100px" height="100px" viewBox="0 0 100 100" version="1.1" xmlns="http://www.w3.org/2000/svg" xmlns:xlink="http://www.w3.org/1999/xlink">
    <title>star</title>
    <g id="star" stroke="none" stroke-width="1" fill="none" fill-rule="evenodd">
        <path d="M50,79.48 L24.6002429,91.9691896 C23.609019,92.4565794 22.4103657,92.0481412 21.9229758,91.0569172 C21.7451947,90.6953568 21.6807599,90.2885311 21.7381114,89.8897293 L25.76708,61.873753 L25.76708,61.873753 L6.04019826,41.5765204 C5.27035792,40.7844221 5.28840152,39.5182207 6.08049977,38.7483804 C6.36942682,38.4675722 6.73642954,38.2805749 7.13343522,38.211883 L35.0232318,33.386247 L35.0232318,33.386247 L48.2311054,8.35267777 C48.7465419,7.37574428 49.9563468,7.00162701 50.9332803,7.51706346 C51.2896281,7.7050749 51.5808831,7.99632991 51.7688946,8.35267777 L64.9767682,33.386247 L64.9767682,33.386247 L92.8665648,38.211883 C93.9549624,38.4002031 94.6846193,39.4351873 94.4962991,40.5235849 C94.4276072,40.9205906 94.24061,41.2875933 93.9598017,41.5765204 L74.23292,61.873753 L74.23292,61.873753 L78.2618886,89.8897293 C78.4191188,90.983051 77.6602667,91.9968237 76.566945,92.154054 C76.1681432,92.2114055 75.7613175,92.1469707 75.3997571,91.9691896 L50,79.48 L50,79.48 Z" id="Star" fill="#FFC800"></path>
        <path d="M50.9332803,7.51706346 C51.2896281,7.7050749 51.5808831,7.99632991 51.7688946,8.35267777 L64.9767682,33.386247 L87.200949,37.2319516 C74.9505082,61.5985808 51.0507679,79.1001737 22.8123984,82.4260603 L25.76708,61.873753 L6.04019826,41.5765204 C5.27035792,40.7844221 5.28840152,39.5182207 6.08049977,38.7483804 C6.36942682,38.4675722 6.73642954,38.2805749 7.13343522,38.211883 L35.0232318,33.386247 L48.2311054,8.35267777 C48.7465419,7.37574428 49.9563468,7.00162701 50.9332803,7.51706346 Z" id="Combined-Shape" fill="#FFD801"></path>
        <polygon id="Path-2" fill="#E8C905" points="47 14 37 37 7.5 41 40 40"></polygon>
    </g>
</svg>